<svg width="18" height="17" viewBox="0 0 18 17" fill="none" xmlns="http://www.w3.org/2000/svg">
<path d="M9.0008 14.2752L4.8508 16.7752C4.66747 16.8919 4.4758 16.9419 4.2758 16.9252C4.0758 16.9085 3.9008 16.8419 3.7508 16.7252C3.6008 16.6085 3.48414 16.4629 3.4008 16.2882C3.31747 16.1129 3.3008 15.9169 3.3508 15.7002L4.4508 10.9752L0.775803 7.8002C0.609136 7.6502 0.505136 7.4792 0.463803 7.2872C0.421803 7.09586 0.434136 6.90853 0.500803 6.7252C0.567469 6.54186 0.667469 6.39186 0.800803 6.2752C0.934136 6.15853 1.11747 6.08353 1.3508 6.0502L6.2008 5.6252L8.0758 1.1752C8.15914 0.975196 8.28847 0.825195 8.4638 0.725195C8.63847 0.625195 8.81747 0.575195 9.0008 0.575195C9.18414 0.575195 9.36347 0.625195 9.5388 0.725195C9.71347 0.825195 9.84247 0.975196 9.9258 1.1752L11.8008 5.6252L16.6508 6.0502C16.8841 6.08353 17.0675 6.15853 17.2008 6.2752C17.3341 6.39186 17.4341 6.54186 17.5008 6.7252C17.5675 6.90853 17.5801 7.09586 17.5388 7.2872C17.4968 7.4792 17.3925 7.6502 17.2258 7.8002L13.5508 10.9752L14.6508 15.7002C14.7008 15.9169 14.6841 16.1129 14.6008 16.2882C14.5175 16.4629 14.4008 16.6085 14.2508 16.7252C14.1008 16.8419 13.9258 16.9085 13.7258 16.9252C13.5258 16.9419 13.3341 16.8919 13.1508 16.7752L9.0008 14.2752Z" fill="#FFD966"/>
</svg>
